#Comment line ignore any data following # character 
#Hierarchical Translation and Rotation (.htr) file 
[Header]	
#Header keywords are followed by a single value 
FileType HTR		#Single word string
DataType HTRS		#Translation followed by rotation and scale data
FileVersion 1		#integer
NumSegments 84		#integer
NumFrames 2		#integer
DataFrameRate 30		#integer, data frame rate in this file
EulerRotationOrder ZYX
CalibrationUnits mm
RotationUnits Degrees
GlobalAxisofGravity Y
BoneLengthAxis Y
ScaleFactor 1.00
[SegmentNames&Hierarchy]
#CHILD	PARENT
MASTER GLOBAL
root MASTER
chest root
L_mid_tent01 root
R_mid_tent01 root
spine01 root
Bip01_Neck chest
L_humerus chest
R_humerus chest
weapon_bone chest
Bip01_Head Bip01_Neck
eye_left_bone Bip01_Head
eye_right_bone Bip01_Head
L_forearm L_humerus
L_front_hand L_forearm
L_weapon_bone L_forearm
L_front_hand01_01 L_front_hand
L_front_hand02_01 L_front_hand
L_front_hand03_01 L_front_hand
L_front_hand01_02 L_front_hand01_01
L_front_hand02_02 L_front_hand02_01
L_front_hand03_02 L_front_hand03_01
R_forearm R_humerus
R_front_hand R_forearm
R_weapon_bone R_forearm
R_front_hand01_01 R_front_hand
R_front_hand02_01 R_front_hand
R_front_hand03_01 R_front_hand
R_front_hand01_02 R_front_hand01_01
R_front_hand02_02 R_front_hand02_01
R_front_hand03_02 R_front_hand03_01
null_rope01_connect L_mid_tent01
Rope1_Seg01 null_rope01_connect
Rope1_Seg02 Rope1_Seg01
Rope1_Seg03 Rope1_Seg02
Rope1_Seg04 Rope1_Seg03
Rope1_Seg05 Rope1_Seg04
Rope1_Seg06 Rope1_Seg05
Rope1_Seg07 Rope1_Seg06
Rope1_Seg09 Rope1_Seg07
L_mid_hand01 Rope1_Seg09
L_mid_hand02 Rope1_Seg09
L_mid_hand03 Rope1_Seg09
null_rope02_connect R_mid_tent01
Rope2_Seg01 null_rope02_connect
Rope2_Seg02 Rope2_Seg01
Rope2_Seg03 Rope2_Seg02
Rope2_Seg04 Rope2_Seg03
Rope2_Seg05 Rope2_Seg04
Rope2_Seg06 Rope2_Seg05
Rope2_Seg07 Rope2_Seg06
Rope2_Seg09 Rope2_Seg07
R_mid_hand01 Rope2_Seg09
R_mid_hand02 Rope2_Seg09
R_mid_hand03 Rope2_Seg09
spine02 spine01
spine03 spine02
pelvis spine03
null_rope03_connect pelvis
null_rope04_connect pelvis
Rope3_Seg01 null_rope03_connect
Rope3_Seg02 Rope3_Seg01
Rope3_Seg03 Rope3_Seg02
Rope3_Seg04 Rope3_Seg03
Rope3_Seg05 Rope3_Seg04
Rope3_Seg06 Rope3_Seg05
Rope3_Seg07 Rope3_Seg06
Rope3_Seg08 Rope3_Seg07
Rope3_Seg09 Rope3_Seg08
R_rear_hand01 Rope3_Seg09
R_rear_hand02 Rope3_Seg09
R_rear_hand03 Rope3_Seg09
Rope4_Seg01 null_rope04_connect
Rope4_Seg02 Rope4_Seg01
Rope4_Seg03 Rope4_Seg02
Rope4_Seg04 Rope4_Seg03
Rope4_Seg05 Rope4_Seg04
Rope4_Seg06 Rope4_Seg05
Rope4_Seg07 Rope4_Seg06
Rope4_Seg08 Rope4_Seg07
Rope4_Seg09 Rope4_Seg08
L_rear_hand01 Rope4_Seg09
L_rear_hand02 Rope4_Seg09
L_rear_hand03 Rope4_Seg09
[BasePosition]
#SegmentName Tx, Ty, Tz, Rx, Ry, Rz, BoneLength
MASTER 0.000000 0.000000 0.000000 -90.000000 0.000000 0.000000 10.000000 
root 0.000000 0.000000 0.000000 0.000000 0.000000 0.000000 10.000000 
chest 0.000000 0.000000 0.000000 0.000000 0.000000 0.000000 10.000000 
L_mid_tent01 0.000000 0.000000 0.000000 0.000000 0.000000 0.000000 10.000000 
R_mid_tent01 0.000000 0.000000 0.000000 0.000000 0.000000 0.000000 10.000000 
spine01 0.000000 0.000000 0.000000 0.000000 0.000000 0.000000 10.000000 
Bip01_Neck 0.000000 0.000000 0.000000 0.000000 0.000000 0.000000 10.000000 
L_humerus 0.000000 0.000000 0.000000 0.000000 0.000000 0.000000 10.000000 
R_humerus 0.000000 0.000000 0.000000 0.000000 0.000000 0.000000 10.000000 
weapon_bone 0.000000 0.000000 0.000000 0.000000 0.000000 0.000000 10.000000 
Bip01_Head 0.000000 0.000000 0.000000 0.000000 0.000000 0.000000 10.000000 
eye_left_bone 0.000000 0.000000 0.000000 0.000000 0.000000 0.000000 10.000000 
eye_right_bone 0.000000 0.000000 0.000000 0.000000 0.000000 0.000000 10.000000 
L_forearm 0.000000 0.000000 0.000000 0.000000 0.000000 0.000000 10.000000 
L_front_hand 0.000000 0.000000 0.000000 0.000000 0.000000 0.000000 10.000000 
L_weapon_bone 0.000000 0.000000 0.000000 0.000000 0.000000 0.000000 10.000000 
L_front_hand01_01 0.000000 0.000000 0.000000 0.000000 0.000000 0.000000 10.000000 
L_front_hand02_01 0.000000 0.000000 0.000000 0.000000 0.000000 0.000000 10.000000 
L_front_hand03_01 0.000000 0.000000 0.000000 0.000000 0.000000 0.000000 10.000000 
L_front_hand01_02 0.000000 0.000000 0.000000 0.000000 0.000000 0.000000 10.000000 
L_front_hand02_02 0.000000 0.000000 0.000000 0.000000 0.000000 0.000000 10.000000 
L_front_hand03_02 0.000000 0.000000 0.000000 0.000000 0.000000 0.000000 10.000000 
R_forearm 0.000000 0.000000 0.000000 0.000000 0.000000 0.000000 10.000000 
R_front_hand 0.000000 0.000000 0.000000 0.000000 0.000000 0.000000 10.000000 
R_weapon_bone 0.000000 0.000000 0.000000 0.000000 0.000000 0.000000 10.000000 
R_front_hand01_01 0.000000 0.000000 0.000000 0.000000 0.000000 0.000000 10.000000 
R_front_hand02_01 0.000000 0.000000 0.000000 0.000000 0.000000 0.000000 10.000000 
R_front_hand03_01 0.000000 0.000000 0.000000 0.000000 0.000000 0.000000 10.000000 
R_front_hand01_02 0.000000 0.000000 0.000000 0.000000 0.000000 0.000000 10.000000 
R_front_hand02_02 0.000000 0.000000 0.000000 0.000000 0.000000 0.000000 10.000000 
R_front_hand03_02 0.000000 0.000000 0.000000 0.000000 0.000000 0.000000 10.000000 
null_rope01_connect 0.000000 0.000000 0.000000 0.000000 0.000000 0.000000 10.000000 
Rope1_Seg01 0.000000 0.000000 0.000000 0.000000 0.000000 0.000000 10.000000 
Rope1_Seg02 0.000000 0.000000 0.000000 0.000000 0.000000 0.000000 10.000000 
Rope1_Seg03 0.000000 0.000000 0.000000 0.000000 0.000000 0.000000 10.000000 
Rope1_Seg04 0.000000 0.000000 0.000000 0.000000 0.000000 0.000000 10.000000 
Rope1_Seg05 0.000000 0.000000 0.000000 0.000000 0.000000 0.000000 10.000000 
Rope1_Seg06 0.000000 0.000000 0.000000 0.000000 0.000000 0.000000 10.000000 
Rope1_Seg07 0.000000 0.000000 0.000000 0.000000 0.000000 0.000000 10.000000 
Rope1_Seg09 0.000000 0.000000 0.000000 0.000000 0.000000 0.000000 10.000000 
L_mid_hand01 0.000000 0.000000 0.000000 0.000000 0.000000 0.000000 10.000000 
L_mid_hand02 0.000000 0.000000 0.000000 0.000000 0.000000 0.000000 10.000000 
L_mid_hand03 0.000000 0.000000 0.000000 0.000000 0.000000 0.000000 10.000000 
null_rope02_connect 0.000000 0.000000 0.000000 0.000000 0.000000 0.000000 10.000000 
Rope2_Seg01 0.000000 0.000000 0.000000 0.000000 0.000000 0.000000 10.000000 
Rope2_Seg02 0.000000 0.000000 0.000000 0.000000 0.000000 0.000000 10.000000 
Rope2_Seg03 0.000000 0.000000 0.000000 0.000000 0.000000 0.000000 10.000000 
Rope2_Seg04 0.000000 0.000000 0.000000 0.000000 0.000000 0.000000 10.000000 
Rope2_Seg05 0.000000 0.000000 0.000000 0.000000 0.000000 0.000000 10.000000 
Rope2_Seg06 0.000000 0.000000 0.000000 0.000000 0.000000 0.000000 10.000000 
Rope2_Seg07 0.000000 0.000000 0.000000 0.000000 0.000000 0.000000 10.000000 
Rope2_Seg09 0.000000 0.000000 0.000000 0.000000 0.000000 0.000000 10.000000 
R_mid_hand01 0.000000 0.000000 0.000000 0.000000 0.000000 0.000000 10.000000 
R_mid_hand02 0.000000 0.000000 0.000000 0.000000 0.000000 0.000000 10.000000 
R_mid_hand03 0.000000 0.000000 0.000000 0.000000 0.000000 0.000000 10.000000 
spine02 0.000000 0.000000 0.000000 0.000000 0.000000 0.000000 10.000000 
spine03 0.000000 0.000000 0.000000 0.000000 0.000000 0.000000 10.000000 
pelvis 0.000000 0.000000 0.000000 0.000000 0.000000 0.000000 10.000000 
null_rope03_connect 0.000000 0.000000 0.000000 0.000000 0.000000 0.000000 10.000000 
null_rope04_connect 0.000000 0.000000 0.000000 0.000000 0.000000 0.000000 10.000000 
Rope3_Seg01 0.000000 0.000000 0.000000 0.000000 0.000000 0.000000 10.000000 
Rope3_Seg02 0.000000 0.000000 0.000000 0.000000 0.000000 0.000000 10.000000 
Rope3_Seg03 0.000000 0.000000 0.000000 0.000000 0.000000 0.000000 10.000000 
Rope3_Seg04 0.000000 0.000000 0.000000 0.000000 0.000000 0.000000 10.000000 
Rope3_Seg05 0.000000 0.000000 0.000000 0.000000 0.000000 0.000000 10.000000 
Rope3_Seg06 0.000000 0.000000 0.000000 0.000000 0.000000 0.000000 10.000000 
Rope3_Seg07 0.000000 0.000000 0.000000 0.000000 0.000000 0.000000 10.000000 
Rope3_Seg08 0.000000 0.000000 0.000000 0.000000 0.000000 0.000000 10.000000 
Rope3_Seg09 0.000000 0.000000 0.000000 0.000000 0.000000 0.000000 10.000000 
R_rear_hand01 0.000000 0.000000 0.000000 0.000000 0.000000 0.000000 10.000000 
R_rear_hand02 0.000000 0.000000 0.000000 0.000000 0.000000 0.000000 10.000000 
R_rear_hand03 0.000000 0.000000 0.000000 0.000000 0.000000 0.000000 10.000000 
Rope4_Seg01 0.000000 0.000000 0.000000 0.000000 0.000000 0.000000 10.000000 
Rope4_Seg02 0.000000 0.000000 0.000000 0.000000 0.000000 0.000000 10.000000 
Rope4_Seg03 0.000000 0.000000 0.000000 0.000000 0.000000 0.000000 10.000000 
Rope4_Seg04 0.000000 0.000000 0.000000 0.000000 0.000000 0.000000 10.000000 
Rope4_Seg05 0.000000 0.000000 0.000000 0.000000 0.000000 0.000000 10.000000 
Rope4_Seg06 0.000000 0.000000 0.000000 0.000000 0.000000 0.000000 10.000000 
Rope4_Seg07 0.000000 0.000000 0.000000 0.000000 0.000000 0.000000 10.000000 
Rope4_Seg08 0.000000 0.000000 0.000000 0.000000 0.000000 0.000000 10.000000 
Rope4_Seg09 0.000000 0.000000 0.000000 0.000000 0.000000 0.000000 10.000000 
L_rear_hand01 0.000000 0.000000 0.000000 0.000000 0.000000 0.000000 10.000000 
L_rear_hand02 0.000000 0.000000 0.000000 0.000000 0.000000 0.000000 10.000000 
L_rear_hand03 0.000000 0.000000 0.000000 0.000000 0.000000 0.000000 10.000000 
#Beginning of Data. Separated by tabs
#Fr	Tx	Ty	Tz	Rx	Ry	Rz	SF
[MASTER]
12 0.000000 0.000000 0.000000 0.001660 0.001660 0.001660 0.000000
13 0.000000 0.000000 0.000000 0.001660 0.001660 0.001660 0.000000
[root]
12 -60.673721 130.983688 1560.468140 -84.526772 -13.693509 -43.797054 1567.130859
13 -85.552818 96.049431 1547.197632 -91.681572 -14.514352 -39.717804 1552.535034
[chest]
12 -84.512650 -34.090519 0.000000 4.956484 -3.126338 -179.300079 91.129311
13 -84.512650 -34.090519 0.000000 5.048372 -2.994665 -179.380966 91.129311
[L_mid_tent01]
12 27.299099 22.179203 -249.918823 -30.604879 15.258592 10.875813 252.381805
13 27.299099 22.179197 -249.918823 -30.765488 24.261534 7.194103 252.381790
[R_mid_tent01]
12 23.228794 24.509907 226.238495 85.702866 -31.710901 166.437225 228.744751
13 23.228794 24.509907 226.238495 84.613098 -24.951033 168.114395 228.744751
[spine01]
12 -0.361383 -0.195265 0.000000 -0.087316 -0.041293 22.727468 0.410763
13 -0.361383 -0.195265 0.000000 -0.085367 -0.040018 22.705608 0.410763
[Bip01_Neck]
12 165.484543 71.581718 0.000119 175.896118 1.177290 24.871183 180.302734
13 165.484543 71.581718 0.000119 175.896118 1.177290 24.871180 180.302734
[L_humerus]
12 -13.983130 -135.272980 -120.471481 -4.796322 64.508858 85.248894 181.680161
13 -13.983130 -135.272980 -120.471481 -4.804900 64.599937 85.245102 181.680161
[R_humerus]
12 -13.983309 -135.273102 125.287651 87.164833 -13.464811 -0.730202 184.909012
13 -13.983309 -135.273102 125.287651 85.682007 -18.052544 1.042980 184.909012
[weapon_bone]
12 235.964890 -300.705902 0.000000 0.000000 -89.951546 -128.212341 382.234833
13 235.964890 -300.705902 0.000000 0.000000 -89.951546 -128.212341 382.234833
[Bip01_Head]
12 242.672394 176.452347 -9.336950 -40.924767 5.844614 -62.456051 300.187439
13 241.513000 180.640823 -9.534036 -43.655388 5.845809 -62.453903 301.745819
[eye_left_bone]
12 2.003021 119.918152 -57.305183 0.000000 -90.000000 -99.840431 132.922012
13 1.979675 119.923019 -57.311768 0.000000 -90.000000 -99.840431 132.928879
[eye_right_bone]
12 2.008362 119.915794 71.795387 0.000000 -89.965736 80.156380 139.779861
13 1.984985 119.920624 71.788803 0.000000 -89.972023 80.156380 139.780289
[L_forearm]
12 322.776093 0.000000 -0.000119 0.000432 -0.002307 -111.227692 322.776093
13 322.776093 0.000000 -0.000119 0.000431 -0.002307 -111.179741 322.776093
[L_front_hand]
12 241.149185 -0.042021 -3.300071 -178.667953 -1.835447 -27.422350 241.171753
13 241.149185 -0.042021 -3.300071 -178.667953 -1.835447 -27.422350 241.171753
[L_weapon_bone]
12 156.183838 0.000000 0.000000 0.000014 0.000007 0.000001 156.183838
13 156.183838 0.000000 0.000000 0.000014 0.000007 0.000001 156.183838
[L_front_hand01_01]
12 86.095154 20.947098 -0.655860 -0.366594 -0.477154 75.385574 88.609184
13 86.095154 20.947098 -0.655860 -0.366594 -0.477154 75.385574 88.609184
[L_front_hand02_01]
12 86.935165 -11.437475 24.513514 154.403519 -59.888931 -61.371990 91.046425
13 86.935165 -11.437475 24.513514 154.403519 -59.888931 -61.371990 91.046425
[L_front_hand03_01]
12 86.637497 -14.123976 -20.424902 -153.913849 58.118122 -62.702866 90.126129
13 86.637497 -14.123976 -20.424902 -153.913849 58.118122 -62.702866 90.126129
[L_front_hand01_02]
12 71.020905 -0.000179 0.000030 0.000334 -0.002323 -106.379684 71.020905
13 71.020905 -0.000179 0.000030 0.000334 -0.002323 -106.379684 71.020905
[L_front_hand02_02]
12 71.020927 -0.000119 0.000060 0.000334 -0.002323 -106.379684 71.020927
13 71.020927 -0.000119 0.000060 0.000334 -0.002323 -106.379684 71.020927
[L_front_hand03_02]
12 71.020905 -0.000060 0.000060 0.000334 -0.002323 -106.379684 71.020905
13 71.020905 -0.000060 0.000060 0.000334 -0.002323 -106.379684 71.020905
[R_forearm]
12 322.776428 -0.000060 0.000030 -0.024389 -0.210005 6.102618 322.776428
13 322.776428 -0.000060 0.000030 -0.021138 -0.210357 4.330195 322.776428
[R_front_hand]
12 238.847015 -0.006795 2.210259 -174.096680 1.645151 -6.439825 238.857239
13 238.847015 -0.006795 2.210259 -111.954979 1.645293 -6.435598 238.857239
[R_weapon_bone]
12 155.664093 0.002503 -0.000030 0.003487 0.001180 -90.988930 155.664078
13 155.664093 0.002503 -0.000030 0.003487 0.001180 -90.988930 155.664078
[R_front_hand01_01]
12 87.624611 14.231146 22.918642 -116.960205 3.496175 -1.323883 91.683487
13 87.624611 14.231146 22.918642 -154.633499 -59.950615 61.746044 91.683487
[R_front_hand02_01]
12 89.356956 14.367283 -19.491137 118.419624 -4.256595 0.610096 92.579636
13 89.356956 14.367283 -19.491137 154.602676 58.302864 63.744400 92.579636
[R_front_hand03_01]
12 87.286232 -22.307278 -0.143439 -0.387967 -0.231466 4.231439 90.091743
13 87.286232 -22.307278 -0.143439 0.162155 -0.423168 -75.767921 90.091743
[R_front_hand01_02]
12 71.020905 0.000060 0.000119 0.001777 0.001534 8.377220 71.020905
13 71.020905 0.000060 0.000119 0.001777 0.001534 8.377220 71.020905
[R_front_hand02_02]
12 71.020844 -0.000030 -0.000119 0.001777 0.001534 8.377220 71.020836
13 71.020844 -0.000030 -0.000119 0.001777 0.001534 8.377220 71.020836
[R_front_hand03_02]
12 71.020905 0.000000 0.000030 0.001777 0.001534 8.377220 71.020905
13 71.020905 0.000000 0.000030 0.001777 0.001534 8.377220 71.020905
[null_rope01_connect]
12 328.732483 0.000000 -0.000238 131.439362 -50.833530 -32.885708 328.732483
13 328.732483 0.000000 -0.000238 146.478928 -54.482315 -42.454273 328.732483
[Rope1_Seg01]
12 0.000004 -0.000056 0.000056 4.885260 -12.279462 -84.396385 0.000079
13 0.000008 -0.000055 0.000061 -0.107106 -17.905487 -73.585464 0.000083
[Rope1_Seg02]
12 139.999863 -0.000179 0.000000 8.228100 5.786645 -17.126152 139.999863
13 139.999863 -0.000179 0.000000 6.258252 3.549271 -17.034706 139.999863
[Rope1_Seg03]
12 139.999924 0.000060 -0.000060 66.451920 5.020219 -33.168251 139.999924
13 139.999924 0.000060 -0.000060 43.381733 2.500779 -36.536976 139.999924
[Rope1_Seg04]
12 139.999924 -0.000060 -0.000119 47.600311 -21.986200 -13.331456 139.999924
13 139.999924 -0.000060 -0.000119 50.258209 -17.958977 -22.003572 139.999924
[Rope1_Seg05]
12 139.999832 0.000119 -0.000060 12.218590 -20.999462 3.213395 139.999832
13 139.999832 0.000119 -0.000060 22.855431 -28.703857 -5.399547 139.999832
[Rope1_Seg06]
12 139.999954 0.000119 -0.000060 3.041748 -32.878284 12.312296 139.999954
13 139.999954 0.000119 -0.000060 4.292327 -39.562710 8.520287 139.999954
[Rope1_Seg07]
12 139.999985 0.000060 0.000000 -1.453301 -16.644478 8.424164 139.999985
13 139.999985 0.000060 0.000000 -1.440529 -14.266042 4.943635 139.999985
[Rope1_Seg09]
12 121.602913 0.000119 -0.000089 -89.793175 -1.359789 0.847147 121.602913
13 121.602913 0.000119 -0.000089 -89.793175 -1.359789 0.847147 121.602913
[L_mid_hand01]
12 103.859421 1.038730 8.195221 114.520287 -53.310486 -20.623234 104.187431
13 103.859421 1.038730 8.195221 114.520287 -53.310486 -20.623234 104.187431
[L_mid_hand02]
12 105.572853 -4.139662 -10.864139 -155.067673 38.166634 -52.448826 106.211075
13 105.572853 -4.139662 -10.864139 -155.067673 38.166618 -52.448807 106.211075
[L_mid_hand03]
12 104.641464 17.579376 -3.913581 -10.970130 15.317461 57.626949 106.179977
13 104.641464 17.579376 -3.913581 -10.970129 15.317457 57.626934 106.179977
[null_rope02_connect]
12 328.732849 0.000179 -0.000119 -165.207306 -27.416763 101.648460 328.732849
13 328.732849 0.000179 -0.000119 -163.340134 -23.860338 112.935120 328.732849
[Rope2_Seg01]
12 0.000095 0.000153 0.000028 -45.837040 -2.224583 74.390640 0.000182
13 0.000095 0.000153 0.000031 -20.181627 25.069557 98.649536 0.000183
[Rope2_Seg02]
12 139.999741 -0.000060 -0.000119 3.397235 -1.138070 7.489420 139.999756
13 139.999741 -0.000060 -0.000119 -0.666392 -0.582269 -0.905002 139.999756
[Rope2_Seg03]
12 140.000107 0.000030 0.000000 3.598688 -1.174714 6.827268 140.000107
13 140.000107 0.000030 0.000000 -0.334292 -0.074140 -0.556996 140.000107
[Rope2_Seg04]
12 139.999802 0.000000 -0.000060 4.053886 -0.880328 6.566068 139.999802
13 139.999802 0.000000 -0.000060 -0.279853 -0.098360 -0.458064 139.999802
[Rope2_Seg05]
12 139.999985 -0.000060 0.000119 3.185838 2.877164 3.403007 139.999985
13 139.999985 -0.000060 0.000119 -0.912271 -1.518471 -0.832076 139.999985
[Rope2_Seg06]
12 139.999893 -0.000030 -0.000119 1.356176 2.596136 1.046589 139.999893
13 139.999893 -0.000030 -0.000119 -0.995443 -1.672328 -0.819762 139.999893
[Rope2_Seg07]
12 139.999893 0.000060 -0.000060 0.872333 1.146436 1.004553 139.999893
13 139.999893 0.000060 -0.000060 -0.602953 -0.866460 -0.493316 139.999893
[Rope2_Seg09]
12 121.338966 0.000089 -0.000060 165.764465 0.547822 -1.507198 121.338966
13 121.338966 0.000089 -0.000060 -111.457184 0.547391 -1.505709 121.338966
[R_mid_hand01]
12 104.680779 11.144459 -10.335981 -45.231022 16.233332 18.229738 105.778534
13 104.680779 11.144459 -10.335981 -31.189335 37.773026 48.068108 105.778534
[R_mid_hand02]
12 104.070427 2.443552 8.231699 74.704796 -19.933538 5.861593 104.424065
13 104.070427 2.443552 8.231699 66.183014 -52.103355 19.743057 104.424065
[R_mid_hand03]
12 106.028137 -11.221827 -5.996406 -165.892441 7.220818 -23.862425 106.788818
13 106.028137 -11.221827 -5.996406 -172.283524 13.841950 -57.761921 106.788818
[spine02]
12 129.756927 0.001550 0.000119 -0.418748 -15.150273 -3.330840 129.756927
13 129.756927 0.001550 0.000119 -0.443932 -15.314601 -3.182716 129.756927
[spine03]
12 78.614044 0.081579 -4.899015 2.043534 3.757131 18.664934 78.766579
13 78.614044 0.081573 -4.899015 2.037165 3.758736 18.619608 78.766579
[pelvis]
12 169.435242 0.051022 0.000000 -0.063040 -0.179341 15.728944 169.435257
13 169.435242 0.051022 0.000000 -0.062969 -0.179366 15.684017 169.435257
[null_rope03_connect]
12 -1.257226 -2.466202 137.391083 82.302910 -31.109125 -34.853519 137.418976
13 -1.257226 -2.466202 137.391083 90.409073 -28.870872 -39.683350 137.418976
[null_rope04_connect]
12 -1.259640 -2.480268 -137.844437 82.302910 -31.109125 -34.853519 137.872513
13 -1.259640 -2.480268 -137.844437 90.409073 -28.870872 -39.683350 137.872513
[Rope3_Seg01]
12 0.000000 0.000000 0.000000 -146.859009 -45.937645 -61.338158 0.000000
13 0.000000 0.000000 0.000000 -150.626053 -47.762379 -57.351864 0.000000
[Rope3_Seg02]
12 139.999924 -0.000119 0.000060 -1.020619 1.345890 -2.374792 139.999924
13 139.999924 -0.000119 0.000060 -1.157753 1.152532 -2.631699 139.999924
[Rope3_Seg03]
12 139.999924 -0.000119 0.000119 -1.629892 1.977938 -3.351279 139.999924
13 139.999924 -0.000119 0.000119 -1.912162 1.749866 -3.787911 139.999924
[Rope3_Seg04]
12 139.999924 0.000119 0.000000 -3.001684 3.229720 -5.152771 139.999924
13 139.999924 0.000119 0.000000 -3.704065 3.008605 -6.008558 139.999924
[Rope3_Seg05]
12 139.999924 -0.000238 0.000060 -6.259918 6.163685 -8.924946 139.999924
13 139.999924 -0.000238 0.000060 -8.843537 6.418697 -11.212351 139.999924
[Rope3_Seg06]
12 139.999893 -0.000119 -0.000060 -13.816032 12.074845 -15.048360 139.999893
13 139.999893 -0.000119 -0.000060 -24.320179 15.634561 -21.356888 139.999893
[Rope3_Seg07]
12 139.999771 0.000060 -0.000119 -29.471766 28.651697 -23.915342 139.999771
13 139.999771 0.000060 -0.000119 -29.474916 29.522840 -18.817612 139.999771
[Rope3_Seg08]
12 139.999985 -0.000060 0.000000 -13.763369 33.554790 -8.113216 139.999985
13 139.999985 -0.000060 0.000000 -10.372606 31.474861 -2.268335 139.999985
[Rope3_Seg09]
12 90.185997 -0.000179 -0.000060 72.191597 -1.357519 -0.846956 90.185997
13 90.185997 -0.000179 -0.000060 74.082207 -1.361240 -0.845548 90.185997
[R_rear_hand01]
12 103.366196 -6.073594 -10.757982 -177.714127 24.565960 -73.910805 104.101845
13 103.366196 -6.073594 -10.757982 -169.737839 22.551638 -54.126343 104.101845
[R_rear_hand02]
12 100.509819 12.039542 -7.992327 -12.874932 36.868465 72.167053 101.543350
13 100.509819 12.039542 -7.992327 -24.598360 30.936037 51.336994 101.543350
[R_rear_hand03]
12 101.539970 5.215704 5.435467 71.484772 -71.816536 21.513685 101.819031
13 101.539970 5.215704 5.435467 80.282967 -54.075653 11.757504 101.819031
[Rope4_Seg01]
12 -0.000016 -0.000048 -0.000153 27.220106 -20.718563 -58.453564 0.000161
13 -0.000015 -0.000046 -0.000153 18.518745 -20.152737 -46.988205 0.000160
[Rope4_Seg02]
12 139.999985 0.000060 0.000119 -0.625430 -5.790524 -1.407803 139.999985
13 139.999985 0.000060 0.000119 -1.277134 -7.629929 -1.638269 139.999985
[Rope4_Seg03]
12 139.999924 0.000000 -0.000238 -0.512833 -8.176499 -2.098861 139.999924
13 139.999924 0.000000 -0.000238 -0.992366 -10.936434 -2.646206 139.999924
[Rope4_Seg04]
12 139.999985 0.000000 0.000119 -0.120794 -11.698308 -3.173151 139.999985
13 139.999985 0.000000 0.000119 -0.203800 -15.088508 -4.063103 139.999985
[Rope4_Seg05]
12 139.999802 -0.000060 -0.000119 1.071207 -17.766615 -4.852631 139.999802
13 139.999802 -0.000060 -0.000119 1.484473 -19.754238 -6.746770 139.999802
[Rope4_Seg06]
12 139.999924 0.000000 0.000060 1.809988 -14.492562 -3.824060 139.999924
13 139.999924 0.000000 0.000060 1.298799 -11.567616 -3.476055 139.999924
[Rope4_Seg07]
12 139.999802 0.000000 0.000000 2.124989 -11.464804 -3.120233 139.999802
13 139.999802 0.000000 0.000000 2.046970 -9.164962 -1.373237 139.999802
[Rope4_Seg08]
12 139.999924 0.000000 0.000119 5.982654 -20.817961 -5.958518 139.999924
13 139.999924 0.000000 0.000119 6.047215 -16.031649 0.359691 139.999924
[Rope4_Seg09]
12 90.185791 0.000060 0.000060 -135.617828 2.228885 0.850567 90.185791
13 90.185791 0.000060 0.000060 -135.617828 2.228885 0.850567 90.185791
[L_rear_hand01]
12 101.696655 -8.392275 -7.654577 -19.915020 -33.950905 119.950104 102.329041
13 101.696655 -8.392275 -7.654577 -19.915020 -33.950905 119.950104 102.329041
[L_rear_hand02]
12 102.726799 -1.568258 5.773216 77.862221 61.878510 165.399200 102.900848
13 102.726799 -1.568258 5.773216 77.862236 61.878510 165.399200 102.900848
[L_rear_hand03]
12 104.552910 9.721220 -10.420293 -173.099182 -23.740307 -117.327896 105.519653
13 104.552910 9.721220 -10.420293 -173.099182 -23.740307 -117.327896 105.519653
